<svg xmlns="http://www.w3.org/2000/svg" width="500" height="316" viewBox="0 0 500 316">
<defs><marker id="ra" viewBox="0 0 10 10" refX="9" refY="5" markerWidth="6" markerHeight="6" orient="auto"><path d="M0,0 L10,5 L0,10 z" fill="#f85149"/></marker></defs>
<rect width="500" height="316" fill="#0d1117" rx="8"/>
<text x="250" y="22" fill="#e6edf3" font-family="JetBrains Mono,Consolas,monospace" font-size="13" font-weight="bold" text-anchor="middle">_EPROCESS Structure — Key Fields</text>
<rect x="20" y="38" width="280" height="26" fill="rgba(88,166,255,0.15)" stroke="#21262d" rx="3"/>
<text x="30" y="55" fill="#58a6ff" font-family="JetBrains Mono,Consolas,monospace" font-size="11" font-weight="bold">_EPROCESS @ ffffd209`089a3080</text>
<rect x="20" y="68" width="280" height="24" fill="none" /><text x="30" y="84" fill="#8b949e" font-family="JetBrains Mono,Consolas,monospace" font-size="11">+0x000  DirectoryTableBase</text><line x1="20" x2="300" y1="92" y2="92" stroke="#21262d" stroke-width="0.5"/><rect x="20" y="92" width="280" height="24" fill="none" /><text x="30" y="108" fill="#8b949e" font-family="JetBrains Mono,Consolas,monospace" font-size="11">+0x2F0  ActiveProcessLinks</text><line x1="20" x2="300" y1="116" y2="116" stroke="#21262d" stroke-width="0.5"/><rect x="20" y="116" width="280" height="24" fill="none" /><text x="30" y="132" fill="#e6edf3" font-family="JetBrains Mono,Consolas,monospace" font-size="11">+0x440  UniqueProcessId</text><line x1="20" x2="300" y1="140" y2="140" stroke="#21262d" stroke-width="0.5"/><rect x="20" y="140" width="280" height="24" fill="none" /><text x="30" y="156" fill="#e6edf3" font-family="JetBrains Mono,Consolas,monospace" font-size="11">+0x450  ImageFileName[15]</text><line x1="20" x2="300" y1="164" y2="164" stroke="#21262d" stroke-width="0.5"/><rect x="20" y="164" width="280" height="24" fill="none" /><text x="30" y="180" fill="#8b949e" font-family="JetBrains Mono,Consolas,monospace" font-size="11">+0x550  Token</text><line x1="20" x2="300" y1="188" y2="188" stroke="#21262d" stroke-width="0.5"/><rect x="20" y="188" width="280" height="24" fill="none" /><text x="30" y="204" fill="#8b949e" font-family="JetBrains Mono,Consolas,monospace" font-size="11">  ...    </text><line x1="20" x2="300" y1="212" y2="212" stroke="#21262d" stroke-width="0.5"/><rect x="20" y="212" width="280" height="24" fill="rgba(248,81,73,0.15)" stroke="#f85149" stroke-width="1.5"/><text x="30" y="228" fill="#f85149" font-family="JetBrains Mono,Consolas,monospace" font-size="11">+0x6FA  Protection  →  0x31</text><line x1="20" x2="300" y1="236" y2="236" stroke="#21262d" stroke-width="0.5"/><line x1="302" x2="350" y1="224" y2="224" stroke="#f85149" stroke-width="1.5" marker-end="url(#ra)"/><rect x="352" y="198" width="130" height="50" fill="rgba(248,81,73,0.12)" stroke="#f85149" stroke-width="1" rx="4"/><text x="417" y="215" fill="#f85149" font-family="JetBrains Mono,Consolas,monospace" font-size="10" text-anchor="middle" font-weight="bold">single byte</text><text x="417" y="231" fill="#e6edf3" font-family="JetBrains Mono,Consolas,monospace" font-size="10" text-anchor="middle">Type=1 (PPL)</text><text x="417" y="244" fill="#e6edf3" font-family="JetBrains Mono,Consolas,monospace" font-size="10" text-anchor="middle">Signer=3 (AM)</text><rect x="20" y="236" width="280" height="24" fill="none" /><text x="30" y="252" fill="#8b949e" font-family="JetBrains Mono,Consolas,monospace" font-size="11">  ...    </text><line x1="20" x2="300" y1="260" y2="260" stroke="#21262d" stroke-width="0.5"/><rect x="20" y="260" width="280" height="24" fill="none" /><text x="30" y="276" fill="#8b949e" font-family="JetBrains Mono,Consolas,monospace" font-size="11">+0x900  (end)</text><line x1="20" x2="300" y1="284" y2="284" stroke="#21262d" stroke-width="0.5"/>
<text x="250" y="310" fill="#8b949e" font-family="JetBrains Mono,Consolas,monospace" font-size="10" text-anchor="middle">⚠  Offset +0x6FA is build-specific — always run: dt nt!_EPROCESS 0 Protection</text>
</svg>